Coordinates
version=1
nRows=7
nColumns=33
inDegrees=yes

Units are S.I. units (second, meters, Newtons, ...)
Angles are in degrees.

endheader
time	ground_thorax_rot_x	ground_thorax_rot_y	ground_thorax_rot_z	ground_thorax_tx	ground_thorax_ty	ground_thorax_tz	clav_prot_r	clav_elev_r	scapula_abduction_r	scapula_elevation_r	scapula_upward_rot_r	scapula_winging_r	shoulder_elv_r	plane_of_elev_r	axial_rot_r	elbow_flexion_r	pro_sup_r	wrist_flex_r	wrist_dev_r	clav_prot_l	clav_elev_l	scapula_abduction_l	scapula_elevation_l	scapula_upward_rot_l	scapula_winging_l	shoulder_elv_l	plane_of_elev_l	axial_rot_l	elbow_flexion_l	pro_sup_l	wrist_flex_l	wrist_dev_l
      9.83000000	    -29.09208336	    -31.87020920	     41.74202835	    -39.42578916	    780.63391669	    -35.36297436	     27.74490751	    -45.00000000	     38.63271605	    -45.00000000	    -45.00000000	  -2264.41999069	  -2265.01345170	    161.43607405	     44.42418611	   1080.49596742	    166.01513349	     11.60668812	     14.78185317	     -0.74903698	     30.99668398	    -27.94261293	    -45.00000000	    -45.00000000	  -3156.65710258	  -2084.02605199	     26.15216465	     47.13658339	    709.54387794	     39.71555155	     12.63432301	    -15.31510164
      9.84000000	    -29.44550964	    -31.63648230	     41.18055855	    -42.62110178	    782.16169768	    -35.54586596	     27.73005651	    -45.00000000	     38.59454557	    -45.00000000	    -45.00000000	  -2264.46473858	  -2264.92183238	    161.38242638	     44.16583759	   1080.53877996	    165.96336919	     11.63822517	     14.82937584	     -0.71321114	     31.05429780	    -28.09023574	    -45.00000000	    -45.00000000	  -3156.47338929	  -2084.01658280	     26.16870247	     46.92144636	    709.59894650	     39.91166017	     12.65326320	    -15.41166647
      9.85000000	    -29.73081371	    -31.46955023	     40.71775264	    -45.79842232	    783.75488751	    -35.73086534	     27.72588882	    -45.00000000	     38.67387494	    -45.00000000	    -45.00000000	  -2264.57647905	  -2264.80692735	    161.39285687	     44.02847631	   1080.38436791	    165.88061153	     11.69184749	     14.91164904	     -0.72326267	     31.15102705	    -28.19145312	    -45.00000000	    -45.00000000	  -3156.31762970	  -2083.92744742	     26.10337919	     46.73371301	    709.57697572	     40.13558724	     12.73675227	    -15.52930121
      9.86000000	    -30.17385975	    -31.16892983	     40.04852845	    -48.94594257	    785.41370121	    -35.92210419	     27.57811487	    -45.00000000	     38.49398715	    -45.00000000	    -45.00000000	  -2264.54255038	  -2264.72482871	    161.29918413	     43.75449845	   1080.47313438	    165.73937693	     11.73778652	     14.92394545	     -0.60609510	     31.16126471	    -28.37122870	    -45.00000000	    -45.00000000	  -3156.10639010	  -2083.94104279	     26.15477246	     46.55544484	    709.72861580	     40.34428054	     12.70282566	    -15.62949945
      9.87000000	    -30.42552918	    -30.92373331	     39.59317783	    -52.06438712	    787.14990166	    -36.13149524	     27.53237805	    -45.00000000	     38.61137595	    -45.00000000	    -45.00000000	  -2264.68437498	  -2264.56917871	    161.30979886	     43.59857154	   1080.30950974	    165.58890519	     11.80124878	     14.99744279	     -0.60691267	     31.27893079	    -28.51517596	    -45.00000000	    -45.00000000	  -3156.00803076	  -2083.81087378	     26.10496506	     46.42224081	    709.61088263	     40.60643568	     12.80630379	    -15.73234151
      9.88000000	    -30.73923258	    -30.71633447	     39.07523824	    -55.14282091	    788.96752240	    -36.36075015	     27.53452148	    -45.00000000	     38.58251109	    -45.00000000	    -45.00000000	  -2264.74215707	  -2264.47748334	    161.22515741	     43.40958159	   1080.28042619	    165.40720800	     11.86388502	     15.03283308	     -0.58276496	     31.34788942	    -28.64390271	    -45.00000000	    -45.00000000	  -3155.79162358	  -2083.76868166	     26.09583167	     46.27049054	    709.62243815	     40.85922041	     12.83213962	    -15.83907759
      9.89000000	    -31.06570927	    -30.39613944	     38.52855847	    -58.17279508	    790.87000981	    -36.61018796	     27.38467041	    -45.00000000	     38.56623526	    -45.00000000	    -45.00000000	  -2264.81297152	  -2264.35119360	    161.20200906	     43.19364796	   1080.23134525	    165.21660557	     11.92873476	     15.06842482	     -0.51506468	     31.41367779	    -28.81584092	    -45.00000000	    -45.00000000	  -3155.66523258	  -2083.69008633	     26.10664710	     46.16060096	    709.62835671	     41.10896170	     12.86867848	    -15.95555739
